<svg width="110" height="33" viewBox="0 0 110 33" fill="none" xmlns="http://www.w3.org/2000/svg">
<g clip-path="url(#clip0_51_89)">
<path d="M26.1968 0H0V5.36893H26.1968V0Z" fill="#2F2F2F"/>
<path d="M10.417 10.5536L10.417 32.6396H15.7784L15.7784 10.5536H10.417Z" fill="#2F2F2F"/>
<path d="M104.638 0.159142V32.6396H110V0.159142H104.638Z" fill="#2F2F2F"/>
<path d="M42.3052 7.76416L32.3232 32.6397H38.2381L45.2627 15.4756L42.3052 7.76416Z" fill="#2F2F2F"/>
<path d="M45.2622 0.15918H51.4935L63.2721 32.6397H57.0394L45.2622 0.15918Z" fill="#2F2F2F"/>
<path d="M69.979 0.158831V5.49326H82.6215C84.1092 5.49326 85.5954 5.84869 86.8446 6.65403C88.2364 7.55385 89.5561 9.08355 89.2742 11.6195C88.7118 16.69 84.0252 16.8685 84.0252 16.8685H69.979V32.6393H75.7544V22.1819H82.677C85.2714 22.1819 87.8614 21.5955 90.0975 20.2833C92.617 18.8046 95.12 16.2686 95.0465 12.035C95.0465 12.035 95.9613 2.05295 85.9613 0.152832L69.979 0.158831Z" fill="#2F2F2F"/>
</g>
<defs>
<clipPath id="clip0_51_89">
<rect width="110" height="32.6395" fill="white"/>
</clipPath>
</defs>
</svg>

