<svg width="62" height="62" viewBox="0 0 62 62" fill="none" xmlns="http://www.w3.org/2000/svg">
<path d="M23.25 30.9194C23.25 32.4522 23.7045 33.9506 24.5561 35.2251C25.4077 36.4996 26.6181 37.4929 28.0342 38.0795C29.4503 38.6661 31.0086 38.8196 32.5119 38.5205C34.0153 38.2215 35.3962 37.4834 36.4801 36.3995C37.5639 35.3157 38.3021 33.9347 38.6011 32.4314C38.9001 30.928 38.7466 29.3698 38.1601 27.9536C37.5735 26.5375 36.5801 25.3271 35.3057 24.4755C34.0312 23.624 32.5328 23.1694 31 23.1694C28.9446 23.1694 26.9733 23.9859 25.5199 25.4394C24.0665 26.8928 23.25 28.864 23.25 30.9194ZM34.875 30.9194C34.875 31.6858 34.6477 32.435 34.2219 33.0723C33.7962 33.7095 33.191 34.2062 32.4829 34.4995C31.7748 34.7928 30.9957 34.8695 30.244 34.72C29.4923 34.5705 28.8019 34.2014 28.26 33.6595C27.718 33.1175 27.349 32.4271 27.1995 31.6754C27.0499 30.9237 27.1267 30.1446 27.42 29.4365C27.7133 28.7285 28.2099 28.1233 28.8472 27.6975C29.4844 27.2717 30.2336 27.0444 31 27.0444C32.0277 27.0444 33.0133 27.4527 33.74 28.1794C34.4667 28.9061 34.875 29.8917 34.875 30.9194Z" fill="#2F2F2F"/>
<path d="M36.4033 47.1064C33.4176 50.0868 28.5824 50.0868 25.5967 47.1064L21.5263 43.0433C20.7676 42.2859 19.5374 42.2908 18.7847 43.0542C18.0391 43.8105 18.0435 45.0266 18.7944 45.7776L24.2188 51.2019C27.9639 54.9471 34.0361 54.9471 37.7812 51.2019L43.196 45.7872C43.9507 45.0325 43.9507 43.8089 43.196 43.0541C42.4417 42.2999 41.219 42.2993 40.4641 43.0529L36.4033 47.1064Z" fill="#2F2F2F"/>
<path d="M25.5871 14.7613C28.5781 11.7757 33.4219 11.7757 36.4129 14.7613L40.4544 18.7955C41.2055 19.5453 42.4207 19.5491 43.1765 18.804C43.9404 18.0509 43.9447 16.8197 43.1862 16.0612L37.7572 10.6322C34.0253 6.9003 27.9747 6.9003 24.2428 10.6322L18.804 16.071C18.0493 16.8257 18.0493 18.0493 18.804 18.804C19.5583 19.5583 20.781 19.5588 21.5359 18.8053L25.5871 14.7613Z" fill="#2F2F2F"/>
</svg>
